<?xml version="1.0" encoding="UTF-8" standalone="no"?>
<svg
   xmlns:dc="http://purl.org/dc/elements/1.1/"
   xmlns:cc="http://creativecommons.org/ns#"
   xmlns:rdf="http://www.w3.org/1999/02/22-rdf-syntax-ns#"
   xmlns:svg="http://www.w3.org/2000/svg"
   xmlns="http://www.w3.org/2000/svg"
   xmlns:sodipodi="http://sodipodi.sourceforge.net/DTD/sodipodi-0.dtd"
   xmlns:inkscape="http://www.inkscape.org/namespaces/inkscape"
   width="135.46663mm"
   height="135.46666mm"
   viewBox="0 0 135.46663 135.46666"
   version="1.1"
   id="svg8"
   inkscape:version="1.0.2-2 (e86c870879, 2021-01-15)"
   sodipodi:docname="logo_raw.svg"
   inkscape:export-filename="C:\Home\Workspaces\WSpace_ChikinCoin\logo.png"
   inkscape:export-xdpi="95.706123"
   inkscape:export-ydpi="95.706123">
  <defs
     id="defs2" />
  <sodipodi:namedview
     id="base"
     pagecolor="#ffffff"
     bordercolor="#666666"
     borderopacity="1.0"
     inkscape:pageopacity="0.0"
     inkscape:pageshadow="2"
     inkscape:zoom="0.70710678"
     inkscape:cx="285.27126"
     inkscape:cy="413.0903"
     inkscape:document-units="mm"
     inkscape:current-layer="layer1"
     inkscape:document-rotation="0"
     showgrid="false"
     fit-margin-top="0"
     fit-margin-left="0"
     fit-margin-right="0"
     fit-margin-bottom="0"
     inkscape:window-width="1920"
     inkscape:window-height="1017"
     inkscape:window-x="1912"
     inkscape:window-y="-8"
     inkscape:window-maximized="1"
     inkscape:snap-intersection-paths="false" />
  <metadata
     id="metadata5">
    <rdf:RDF>
      <cc:Work
         rdf:about="">
        <dc:format>image/svg+xml</dc:format>
        <dc:type
           rdf:resource="http://purl.org/dc/dcmitype/StillImage" />
        <dc:title></dc:title>
      </cc:Work>
    </rdf:RDF>
  </metadata>
  <g
     inkscape:label="Calque 1"
     inkscape:groupmode="layer"
     id="layer1"
     transform="translate(-474.75466,-86.798471)">
    <path
       style="fill:#000000;stroke-width:0.264907"
       d="m 539.19432,221.91616 c -1.14134,-0.49825 -2.4518,-2.10282 -2.67028,-3.26959 -0.13006,-0.69463 0.11813,-2.69528 0.81483,-6.56825 0.55102,-3.06315 1.05755,-5.71503 1.12563,-5.89305 0.0968,-0.25309 -5.35083,-0.33984 -24.97805,-0.39774 l -25.10183,-0.0741 -2.11728,-0.72238 c -2.98678,-1.01907 -5.19779,-2.42285 -7.28748,-4.62687 -2.69422,-2.84161 -4.2252,-6.41743 -4.2252,-9.8685 0,-3.79239 3.96866,-6.40653 7.28458,-4.79832 1.39312,0.67567 2.6748,2.25482 2.92813,3.60778 l 0.16792,0.89673 h 3.27445 3.27445 l 0.0705,-38.51373 0.0705,-38.51375 0.61201,-1.51795 c 1.31539,-3.26256 3.8985,-5.8297 7.20149,-7.15693 1.29281,-0.51949 2.04352,-0.59341 6.94127,-0.68347 l 5.49169,-0.10099 v -6.349066 c 0,-5.130779 0.0786,-6.537522 0.40962,-7.331252 1.77043,-4.245186 7.46737,-4.245186 9.23781,0 0.2253,0.540204 0.40962,1.425983 0.40962,1.968382 v 0.986196 l 2.60269,-2.561872 c 3.60482,-3.548296 5.40376,-4.266558 7.85137,-3.134805 2.50342,1.157563 3.65082,3.89325 2.64472,6.30567 -0.23184,0.555918 -2.2519,2.856206 -4.82421,5.49345 l -4.42536,4.537067 29.10672,0.13257 29.10672,0.13258 1.44959,0.59402 c 3.33009,1.3646 5.89551,3.91948 7.19805,7.16845 0.58741,1.46524 0.6115,1.83795 0.69379,10.73208 0.0469,5.06778 0.10811,9.21413 0.13606,9.21413 0.0279,0 2.55159,0.71593 5.6081,1.59093 3.05652,0.87502 5.96236,1.47569 6.42622,1.59093 2.628,0.65288 4.95668,2.68859 4.44771,5.40666 -0.27111,1.44786 -1.46734,2.682 -9.15364,9.44364 l -7.27814,6.40259 -0.13233,20.19781 c -0.1321,20.1628 -0.13336,20.20032 -0.72523,21.6501 -1.36117,3.33417 -3.90571,5.90001 -7.15506,7.21497 -1.50508,0.60908 -1.60504,0.61366 -15.07891,0.69073 -10.37467,0.0593 -13.56452,0.15285 -13.56686,0.39774 -0.002,0.17608 0.43351,2.82852 0.96707,5.89432 1.14392,6.57282 1.10991,7.1339 -0.5322,8.77908 -1.21056,1.21282 -2.41835,1.60654 -4.01038,1.30731 -1.15086,-0.2163 -2.72718,-1.56466 -3.22517,-2.75876 -0.20518,-0.492 -0.85052,-3.59429 -1.43406,-6.89397 -0.58354,-3.29967 -1.08532,-6.02379 -1.11504,-6.05356 -0.0297,-0.0298 -0.50707,2.47403 -1.06077,5.56404 -0.5537,3.09 -1.17905,6.16415 -1.38967,6.83143 -0.84783,2.68614 -3.6646,4.10585 -6.06616,3.05746 z m 32.98657,-81.00951 c 3.23857,-1.2325 6.12108,-4.10479 7.41453,-7.38826 0.8577,-2.17728 0.8577,-6.42685 0,-8.60414 -1.28767,-3.26882 -4.13192,-6.11167 -7.41453,-7.4109 -2.13037,-0.84318 -6.40183,-0.84318 -8.53219,0 -4.5633,1.80612 -7.73337,6.02865 -8.09679,10.78493 -0.44916,5.87844 3.44285,11.36405 9.21466,12.98767 1.95326,0.54946 5.45898,0.37483 7.41432,-0.3693 z m -5.9913,-7.55221 c -1.11735,-0.48777 -2.45028,-2.09466 -2.65808,-3.20441 -0.29866,-1.59501 0.0943,-2.80505 1.30488,-4.01788 1.90613,-1.9097 4.25068,-1.9097 6.15681,0 1.77661,1.77994 1.88858,4.08605 0.28708,5.91347 -1.39059,1.58675 -3.31856,2.08244 -5.09069,1.30882 z"
       id="path36"
       sodipodi:nodetypes="csscscssssscccccssscscsscsssscccsscssssscsssscssssssscccssssssssssssss" />
  </g>
</svg>
