<?xml version="1.0" encoding="UTF-8" standalone="no"?>
<svg
   xmlns:dc="http://purl.org/dc/elements/1.1/"
   xmlns:cc="http://creativecommons.org/ns#"
   xmlns:rdf="http://www.w3.org/1999/02/22-rdf-syntax-ns#"
   xmlns:svg="http://www.w3.org/2000/svg"
   xmlns="http://www.w3.org/2000/svg"
   width="100"
   height="100"
   viewBox="0 0 100 100"
   version="1.1"
   id="svg8">
  <defs
     id="defs2" />
  <metadata
     id="metadata5">
    <rdf:RDF>
      <cc:Work
         rdf:about="">
        <dc:format>image/svg+xml</dc:format>
        <dc:type
           rdf:resource="http://purl.org/dc/dcmitype/StillImage" />
        <dc:title></dc:title>
      </cc:Work>
    </rdf:RDF>
  </metadata>
  <g
     id="layer1"
     transform="translate(1096.3999,261.90593)">
    <path
       style="fill:#000000;stroke-width:0.195551"
       d="m -1048.8312,-162.16359 c -0.8426,-0.3678 -1.8099,-1.55228 -1.9712,-2.41357 -0.096,-0.51277 0.087,-1.98963 0.6015,-4.84861 0.4068,-2.26119 0.7807,-4.21878 0.8309,-4.35019 0.071,-0.18683 -3.9499,-0.25086 -18.4385,-0.2936 l -18.5299,-0.0547 -1.563,-0.53326 c -2.2048,-0.75226 -3.8369,-1.78852 -5.3795,-3.4155 -1.9888,-2.09765 -3.119,-4.73728 -3.119,-7.28482 0,-2.7995 2.9296,-4.72923 5.3774,-3.54207 1.0284,0.49877 1.9745,1.66449 2.1615,2.66323 l 0.124,0.66195 h 2.4171 2.4172 l 0.052,-28.43041 0.052,-28.43042 0.4518,-1.12054 c 0.971,-2.40838 2.8778,-4.30342 5.316,-5.28316 0.9544,-0.38349 1.5086,-0.43805 5.124,-0.50453 l 4.0539,-0.0745 v -4.68682 c 0,-3.78748 0.058,-4.82592 0.3024,-5.41184 1.3069,-3.13375 5.5123,-3.13375 6.8193,0 0.1663,0.39877 0.3023,1.05264 0.3023,1.45303 v 0.728 l 1.9213,-1.89114 c 2.661,-2.61932 3.989,-3.14953 5.7958,-2.31408 1.848,0.8545 2.695,2.87395 1.9523,4.65477 -0.1711,0.41038 -1.6623,2.10842 -3.5612,4.05521 l -3.2667,3.34921 21.4862,0.0979 21.4863,0.0979 1.0701,0.4385 c 2.4582,1.00733 4.352,2.89332 5.3135,5.29167 0.4336,1.08163 0.4514,1.35676 0.5121,7.92231 0.035,3.74097 0.08,6.80176 0.1005,6.80176 0.021,0 1.8835,0.5285 4.1398,1.17441 2.2563,0.64593 4.4014,1.08934 4.7438,1.17441 1.93996,0.48195 3.65896,1.98469 3.28325,3.99114 -0.20013,1.06879 -1.08318,1.97982 -6.75715,6.97119 l -5.3726,4.72632 -0.098,14.9098 c -0.097,14.88395 -0.098,14.91165 -0.5354,15.98186 -1.0048,2.46125 -2.8831,4.35533 -5.2818,5.32601 -1.111,0.44962 -1.1848,0.453 -11.131,0.5099 -7.6585,0.0438 -10.0132,0.11283 -10.015,0.2936 0,0.12998 0.3201,2.08798 0.7139,4.35112 0.8445,4.85199 0.8193,5.26617 -0.3928,6.48062 -0.8937,0.89529 -1.7852,1.18593 -2.9605,0.96505 -0.8495,-0.15967 -2.0131,-1.15502 -2.3807,-2.03649 -0.1515,-0.36319 -0.6279,-2.65327 -1.0587,-5.08905 -0.4307,-2.43578 -0.8011,-4.4467 -0.8231,-4.46867 -0.022,-0.022 -0.3743,1.8263 -0.783,4.10731 -0.4087,2.281 -0.8704,4.55031 -1.0258,5.04288 -0.6259,1.98288 -2.7052,3.0309 -4.478,2.25699 z m 24.3503,-59.80032 c 2.3907,-0.90982 4.5185,-3.03012 5.4733,-5.45394 0.6332,-1.60724 0.6332,-4.74423 0,-6.35148 -0.9505,-2.41301 -3.0501,-4.51157 -5.4733,-5.47064 -1.5726,-0.62243 -4.7258,-0.62243 -6.2984,0 -3.3686,1.33325 -5.7087,4.45028 -5.9769,7.96131 -0.3316,4.3394 2.5414,8.38882 6.8021,9.58736 1.4419,0.4056 4.0298,0.27669 5.4732,-0.27261 z m -4.4227,-5.57496 c -0.8248,-0.36007 -1.8088,-1.54626 -1.9622,-2.36546 -0.2205,-1.17742 0.07,-2.07066 0.9633,-2.96596 1.407,-1.40972 3.1378,-1.40972 4.5449,0 1.3114,1.31393 1.3941,3.01628 0.2119,4.36526 -1.0265,1.17132 -2.4498,1.53723 -3.7579,0.96616 z"
       id="path36" />
  </g>
</svg>
